<svg width="116" height="37" viewBox="0 0 116 37" fill="none" xmlns="http://www.w3.org/2000/svg">
<g clip-path="url(#clip0_1_5)">
<mask id="mask0_1_5" style="mask-type:luminance" maskUnits="userSpaceOnUse" x="0" y="0" width="116" height="37">
<path fill-rule="evenodd" clip-rule="evenodd" d="M0 0H116V37H0V0Z" fill="white"/>
</mask>
<g mask="url(#mask0_1_5)">
<path fill-rule="evenodd" clip-rule="evenodd" d="M97.4426 0H18.5575C8.30818 0 0 8.33098 0 18.6079C0 28.8848 8.09242 37.0006 18.3418 37.0006H97.2269C107.476 37.0006 116 28.8848 116 18.6079C116 8.33098 107.692 0 97.4426 0Z" fill="#7C47E1"/>
<path fill-rule="evenodd" clip-rule="evenodd" d="M96.7195 32.426C89.0934 32.426 82.8894 26.2049 82.8894 18.5578C82.8894 10.9107 89.0934 4.68973 96.7195 4.68973C104.345 4.68973 110.55 10.9107 110.55 18.5578C110.55 26.2049 104.345 32.426 96.7195 32.426Z" fill="white"/>
<path fill-rule="evenodd" clip-rule="evenodd" d="M96.7168 28.017C91.507 28.017 87.284 23.7817 87.284 18.5583C87.284 13.334 91.507 9.09943 96.7168 9.09943C101.926 9.09943 106.15 13.334 106.15 18.5583C106.15 23.7817 101.926 28.017 96.7168 28.017Z" fill="#44CB86"/>
<path fill-rule="evenodd" clip-rule="evenodd" d="M19.2619 27.9627C14.0902 27.9627 9.8834 23.7438 9.8834 18.5584C9.8834 13.3725 14.0902 9.15364 19.2619 9.15364C24.4331 9.15364 28.6404 13.3725 28.6404 18.5584C28.6404 23.7438 24.4331 27.9627 19.2619 27.9627ZM33.0781 18.558C33.0781 10.9186 26.8803 4.70328 19.2619 4.70328C11.6436 4.70328 5.4458 10.9186 5.4458 18.558C5.4458 26.1966 11.6436 32.412 19.2619 32.412C22.8792 32.412 26.1748 31.0106 28.6404 28.7212V30.1874C28.6404 31.4156 29.634 32.412 30.8595 32.412C32.0845 32.412 33.0781 31.4156 33.0781 30.1874V19.0024C33.0781 18.9585 33.0764 18.917 33.0742 18.8777C33.0764 18.7715 33.0781 18.6646 33.0781 18.558Z" fill="white"/>
<path fill-rule="evenodd" clip-rule="evenodd" d="M49.8876 32.4256C42.2166 32.4256 35.9752 26.1669 35.9752 18.4749C35.9752 10.7816 42.2166 4.52414 49.8876 4.52414C53.3278 4.52414 56.6307 5.79295 59.1866 8.09737C60.1033 8.92395 60.1785 10.3389 59.3547 11.2582C58.5304 12.178 57.1187 12.2527 56.2026 11.4262C54.4665 9.86179 52.2238 9.00037 49.8876 9.00037C44.6778 9.00037 40.4391 13.2502 40.4391 18.4749C40.4391 23.699 44.6778 27.9493 49.8876 27.9493C52.2255 27.9493 54.4693 27.0868 56.2054 25.5201C57.1216 24.693 58.5331 24.7678 59.3575 25.6865C60.1823 26.6052 60.1078 28.0201 59.1922 28.8472C56.6346 31.1545 53.3306 32.4256 49.8876 32.4256Z" fill="white"/>
<path fill-rule="evenodd" clip-rule="evenodd" d="M83.0781 28.3616L71.105 18.2891L83.0781 8.42528C84.0219 7.6414 84.1524 6.23886 83.3701 5.29258C82.5878 4.34688 81.1885 4.21596 80.2454 5.00039L67.2732 15.787V6.7131C67.2732 5.4842 66.2796 4.48848 65.0542 4.48848C63.8291 4.48848 62.8356 5.4842 62.8356 6.7131V30.0736C62.8356 31.3026 63.8291 32.2988 65.0542 32.2988C66.2796 32.2988 67.2732 31.3026 67.2732 30.0736V20.9998L80.2454 31.7864C80.66 32.1308 81.1616 32.2988 81.6609 32.2988C82.2981 32.2988 82.9313 32.0246 83.3701 31.4943C84.1524 30.5484 84.0219 29.146 83.0781 28.3616Z" fill="white"/>
</g>
</g>
<defs>
<clipPath id="clip0_1_5">
<rect width="116" height="37" fill="white"/>
</clipPath>
</defs>
</svg>
